<svg width="21" height="21" viewBox="0 0 21 21" fill="none" xmlns="http://www.w3.org/2000/svg">
<path d="M21 10.5C21 16.2991 16.2991 21 10.5 21C4.70093 21 0 16.2991 0 10.5C0 4.70094 4.70093 0 10.5 0C16.2991 0 21 4.70094 21 10.5Z" fill="#4A7AFF"/>
<path d="M10.9608 20.9894C16.546 20.7483 21 16.1446 21 10.5001C21 10.4593 20.9989 10.4186 20.9984 10.3777L13.71 3.08912L5.91699 11.2346L10.2469 15.5644L8.25039 18.279L10.9608 20.9894Z" fill="#0053BF"/>
<path d="M13.7099 3.08895V5.46658C13.7099 5.46658 10.9801 5.07036 10.9801 6.83147V8.59258H13.4457L13.1376 11.2783H10.9801V18.2788H8.25031V11.2783L5.91675 11.2342V8.59258H8.20625V6.56727C8.20625 6.56727 8.05517 3.55438 11.0242 3.00099C12.257 2.77108 13.7099 3.08895 13.7099 3.08895Z" fill="white"/>
<path d="M13.7099 5.46658V3.08895C13.7099 3.08895 12.2571 2.77108 11.0242 3.00099C10.8316 3.03688 10.6525 3.08334 10.4854 3.1383V18.2788H10.9802V11.2783H13.1375L13.4457 8.59258H10.9802C10.9802 8.59258 10.9802 8.59258 10.9802 6.83147C10.9802 5.07036 13.7099 5.46658 13.7099 5.46658Z" fill="#DCE1EB"/>
</svg>
