<svg width="21" height="21" viewBox="0 0 21 21" fill="none" xmlns="http://www.w3.org/2000/svg">
<path d="M10.5 21C16.299 21 21 16.299 21 10.5C21 4.70101 16.299 0 10.5 0C4.70101 0 0 4.70101 0 10.5C0 16.299 4.70101 21 10.5 21Z" fill="#6C27B3"/>
<path d="M15.369 5.45191C14.1144 5.61072 12.8064 5.60518 11.4899 5.47984C9.65152 5.33842 6.96467 4.48993 5.97476 6.18691C4.3845 8.90362 5.16884 12.3817 5.53942 15.4596L11.0657 20.9848C16.4137 20.7008 20.6997 16.4153 20.9846 11.0676L15.369 5.45191Z" fill="#501A96"/>
<path d="M12.9292 4.48993H8.0707C6.0962 4.48993 4.48987 6.09627 4.48987 8.07076V12.9293C4.48987 14.9037 6.0962 16.5101 8.07074 16.5101H12.9292C14.9037 16.5101 16.5101 14.9038 16.5101 12.9293V8.07076C16.5101 6.09627 14.9037 4.48993 12.9292 4.48993ZM15.3008 12.9293C15.3008 14.2391 14.239 15.3009 12.9292 15.3009H8.07074C6.76094 15.3009 5.69913 14.2391 5.69913 12.9293V8.0708C5.69913 6.76101 6.76094 5.69915 8.07074 5.69915H12.9292C14.239 5.69915 15.3008 6.76105 15.3008 8.0708V12.9293Z" fill="white"/>
<path d="M10.5 7.39133C8.78575 7.39133 7.39105 8.78602 7.39105 10.5002C7.39105 12.2143 8.78575 13.609 10.5 13.609C12.2142 13.609 13.6087 12.2144 13.6087 10.5002C13.6087 8.78602 12.2142 7.39133 10.5 7.39133ZM10.5 12.3998C9.45082 12.3998 8.60028 11.5494 8.60028 10.5002C8.60028 9.45105 9.45082 8.60055 10.5 8.60055C11.5491 8.60055 12.3995 9.45101 12.3995 10.5002C12.3995 11.5494 11.5491 12.3998 10.5 12.3998Z" fill="white"/>
<path d="M14.3597 7.41468C14.3597 7.82606 14.0261 8.15964 13.6147 8.15964C13.2033 8.15964 12.8698 7.82606 12.8698 7.41468C12.8698 7.00325 13.2033 6.66971 13.6147 6.66971C14.0262 6.66971 14.3597 7.00317 14.3597 7.41468Z" fill="#D1D1D1"/>
<path d="M12.9293 4.48993H10.4764V5.69915H12.9293C14.239 5.69915 15.3009 6.76105 15.3009 8.0708V12.9293C15.3009 14.2391 14.239 15.3009 12.9293 15.3009H10.4764V16.5101H12.9293C14.9037 16.5101 16.5101 14.9038 16.5101 12.9293V8.07076C16.5101 6.09627 14.9037 4.48993 12.9293 4.48993Z" fill="#D1D1D1"/>
<path d="M10.5 7.39133C10.4921 7.39133 10.4844 7.3919 10.4764 7.3919V8.60112C10.4843 8.60104 10.4921 8.60055 10.5 8.60055C11.5491 8.60055 12.3995 9.45101 12.3995 10.5002C12.3995 11.5494 11.5492 12.3998 10.5 12.3998C10.4921 12.3998 10.4843 12.3993 10.4764 12.3992V13.6084C10.4844 13.6085 10.4921 13.609 10.5 13.609C12.2142 13.609 13.6088 12.2144 13.6088 10.5002C13.6088 8.78602 12.2142 7.39133 10.5 7.39133Z" fill="#D1D1D1"/>
</svg>
