<svg width="21" height="21" viewBox="0 0 21 21" fill="none" xmlns="http://www.w3.org/2000/svg">
<g clip-path="url(#clip0_52_10588)">
<path d="M10.5009 20.9998C16.2998 20.9998 21.0008 16.2988 21.0008 10.4999C21.0008 4.70097 16.2998 0 10.5009 0C4.70194 0 0.000976562 4.70097 0.000976562 10.4999C0.000976562 16.2988 4.70194 20.9998 10.5009 20.9998Z" fill="#55ACEE"/>
<path d="M16.9317 7.54611C16.4817 7.74564 15.9977 7.88059 15.4901 7.94086C16.0083 7.63034 16.4061 7.13902 16.5938 6.55261C16.1089 6.84029 15.5715 7.04899 15.0001 7.16148C14.5422 6.6739 13.8899 6.36918 13.1677 6.36918C11.7818 6.36918 10.6579 7.49314 10.6579 8.87896C10.6579 9.07567 10.6802 9.26715 10.7232 9.45095C8.63737 9.34632 6.78793 8.3472 5.54999 6.82831C5.33399 7.19891 5.21009 7.63034 5.21009 8.09022C5.21009 8.96075 5.65349 9.72927 6.32656 10.1792C5.91534 10.1663 5.52809 10.0535 5.18987 9.86497C5.18968 9.87564 5.18968 9.88631 5.18968 9.89679C5.18968 11.1128 6.05516 12.1271 7.20308 12.3575C6.9927 12.4152 6.77053 12.4457 6.54199 12.4457C6.3799 12.4457 6.22287 12.4301 6.06976 12.4009C6.38907 13.3978 7.31576 14.1235 8.41426 14.1439C7.55515 14.8171 6.47311 15.2182 5.29693 15.2182C5.09479 15.2182 4.89452 15.2064 4.69855 15.1831C5.80866 15.8954 7.12821 16.3108 8.54547 16.3108C13.1618 16.3108 15.6864 12.4865 15.6864 9.16963C15.6864 9.06089 15.684 8.95251 15.6791 8.84508C16.1699 8.49132 16.5953 8.04941 16.9317 7.54611Z" fill="#F1F2F2"/>
</g>
<defs>
<clipPath id="clip0_52_10588">
<rect width="21" height="21" fill="white"/>
</clipPath>
</defs>
</svg>
