<svg width="21" height="21" viewBox="0 0 21 21" fill="none" xmlns="http://www.w3.org/2000/svg">
<path d="M10.5 21C16.299 21 21 16.299 21 10.5C21 4.70101 16.299 0 10.5 0C4.70101 0 0 4.70101 0 10.5C0 16.299 4.70101 21 10.5 21Z" fill="#D22215"/>
<path d="M15.7851 6.98656C15.4703 7.08266 15.1419 7.16522 14.8131 7.24746C12.4798 7.74239 9.36866 6.39897 8.02523 8.59088C6.90481 10.3338 6.55105 12.5148 5.27649 14.0732L12.0844 20.8811C16.6154 20.1953 20.1962 16.6139 20.8813 12.0827L15.7851 6.98656Z" fill="#A81411"/>
<path d="M14.0129 6.24803H6.98703C5.60858 6.24803 4.49115 7.3655 4.49115 8.74391V12.2562C4.49115 13.6346 5.60862 14.752 6.98703 14.752H14.0129C15.3914 14.752 16.5088 13.6346 16.5088 12.2562V8.74391C16.5088 7.3655 15.3913 6.24803 14.0129 6.24803ZM12.3249 10.6709L9.03876 12.2382C8.95115 12.28 8.84996 12.2162 8.84996 12.1192V8.88661C8.84996 8.78817 8.95381 8.72439 9.04151 8.76889L12.3277 10.4342C12.4255 10.4837 12.4238 10.6238 12.3249 10.6709Z" fill="white"/>
<path d="M14.0129 6.24803H10.4293V9.47207L12.3277 10.4341C12.4255 10.4836 12.4238 10.6237 12.3249 10.6709L10.4293 11.575V14.752H14.0129C15.3914 14.752 16.5088 13.6346 16.5088 12.2562V8.74391C16.5088 7.3655 15.3913 6.24803 14.0129 6.24803Z" fill="#D1D1D1"/>
</svg>
